<?xml version="1.0" standalone="no"?>
<!DOCTYPE svg PUBLIC "-//W3C//DTD SVG 20010904//EN"
 "http://www.w3.org/TR/2001/REC-SVG-20010904/DTD/svg10.dtd">
<svg version="1.0" xmlns="http://www.w3.org/2000/svg"
 width="689.000000pt" height="905.000000pt" viewBox="0 0 689.000000 905.000000"
 preserveAspectRatio="xMidYMid meet">

<g transform="translate(0.000000,905.000000) scale(0.100000,-0.100000)"
fill="#000000" stroke="none">
<path d="M902 8863 c-28 -5 -40 -29 -87 -173 -21 -63 -51 -140 -66 -170 -15
-30 -39 -101 -54 -156 -14 -56 -34 -126 -45 -155 -10 -30 -35 -110 -54 -179
-35 -119 -81 -273 -111 -370 -8 -25 -17 -60 -20 -79 -3 -19 -10 -41 -14 -50
-5 -9 -32 -99 -60 -201 -28 -102 -65 -227 -81 -277 -17 -51 -30 -99 -30 -106
0 -8 -9 -36 -19 -63 -25 -62 -101 -337 -101 -363 0 -24 46 -51 88 -51 17 0 50
14 79 34 27 19 72 45 99 59 27 14 73 41 103 61 29 20 58 36 63 36 6 0 47 22
92 48 45 27 128 75 186 107 58 31 147 82 198 112 51 30 95 54 96 52 8 -9 78
-153 126 -259 28 -63 58 -122 66 -131 8 -9 95 -192 193 -408 99 -216 188 -402
197 -412 9 -10 27 -19 39 -19 12 0 123 47 246 103 123 57 293 134 377 172 85
38 160 75 168 82 24 24 16 68 -29 165 -24 51 -47 106 -51 121 -4 16 -69 169
-145 340 -230 519 -281 637 -281 647 0 5 9 14 21 20 31 17 592 203 799 264
234 70 254 88 211 182 -13 28 -28 44 -52 54 -19 7 -70 30 -114 50 -44 21 -100
47 -125 58 -25 11 -85 39 -133 61 -49 23 -95 41 -102 41 -7 0 -76 32 -154 70
-78 39 -151 70 -162 70 -25 0 -56 16 -89 45 -14 12 -104 59 -200 105 -96 46
-263 127 -370 180 -107 53 -213 103 -235 110 -22 7 -92 38 -155 68 -205 99
-254 115 -308 105z m823 -603 c166 -82 525 -251 858 -403 63 -29 84 -47 53
-47 -12 0 -589 -189 -783 -257 -42 -15 -73 -31 -73 -39 0 -7 47 -120 104 -251
219 -504 448 -1044 445 -1047 -8 -8 -452 -206 -461 -206 -5 0 -20 24 -32 53
-13 28 -85 183 -161 342 -76 160 -166 351 -200 425 -103 223 -213 450 -218
450 -2 0 -100 -55 -218 -121 -118 -67 -281 -160 -364 -207 -82 -46 -162 -93
-177 -103 -14 -11 -28 -19 -31 -19 -3 0 8 42 23 93 16 50 65 216 109 367 45
151 92 311 105 355 127 432 220 752 256 886 9 37 20 71 24 77 6 10 219 -91
741 -348z"/>
<path d="M2465 8409 c-22 -5 -62 -11 -90 -15 -45 -5 -48 -7 -31 -20 11 -7 69
-34 130 -60 61 -25 183 -81 271 -125 88 -43 198 -94 245 -114 131 -56 150 -67
189 -111 74 -84 90 -209 38 -289 -33 -51 -94 -79 -319 -145 -276 -82 -608
-191 -608 -200 0 -7 97 -45 180 -69 72 -22 273 -51 427 -62 224 -16 475 -3
788 42 264 37 311 58 440 190 130 133 207 160 357 124 325 -79 656 -366 768
-667 26 -72 56 -204 70 -313 13 -103 3 -242 -30 -410 -27 -141 -36 -243 -34
-370 3 -188 35 -255 260 -550 67 -87 73 -107 62 -190 -13 -95 -14 -391 -4
-665 7 -191 6 -237 -8 -305 -8 -44 -23 -116 -32 -160 -12 -59 -14 -107 -10
-180 3 -55 10 -204 15 -331 9 -246 17 -286 58 -292 36 -5 66 23 79 75 38 142
55 260 68 459 13 199 18 229 48 323 18 58 39 106 45 108 6 2 50 -33 97 -79
101 -97 103 -105 56 -224 -61 -152 -89 -336 -56 -363 11 -10 21 -9 43 2 56 29
106 104 146 215 15 39 39 90 54 114 24 36 28 51 27 112 -1 85 -29 148 -95 214
-45 44 -151 102 -188 102 -11 0 -32 -12 -46 -27 -26 -29 -33 -18 -14 20 7 12
31 51 54 87 115 178 195 377 195 487 0 23 4 44 8 47 16 10 72 -37 107 -90 71
-106 106 -259 135 -584 16 -179 -2 -431 -50 -715 -30 -175 -53 -236 -107 -289
-51 -51 -91 -66 -173 -66 -45 0 -63 6 -100 31 -120 81 -160 87 -220 33 -54
-49 -86 -119 -115 -255 -24 -109 -61 -254 -104 -404 -73 -258 -222 -594 -338
-766 -81 -119 -331 -399 -357 -399 -16 0 -2 28 32 64 l37 40 -38 -32 c-21 -18
-44 -32 -52 -32 -18 0 -19 -22 -2 -39 10 -10 4 -19 -28 -47 -43 -37 -58 -43
-49 -19 4 8 11 15 18 15 6 0 17 9 24 21 11 18 11 23 -5 35 -10 7 -22 13 -28
13 -15 0 -45 -25 -45 -38 0 -13 -22 -15 -35 -2 -6 5 -18 1 -30 -12 -11 -11
-14 -16 -6 -12 9 5 12 4 7 -3 -4 -6 -12 -9 -19 -6 -8 3 -17 -11 -24 -38 -30
-110 -27 -116 24 -68 18 17 37 30 44 30 6 0 20 9 30 21 10 12 23 19 28 17 12
-4 -122 -118 -138 -118 -6 0 -11 -4 -11 -10 0 -5 -4 -10 -10 -10 -6 0 -10 34
-10 83 0 46 -4 108 -10 138 -5 30 -16 104 -24 164 -58 417 -98 651 -114 663
-14 11 -19 10 -30 -5 -15 -20 -14 -29 19 -367 23 -241 24 -314 3 -425 -53
-281 -202 -485 -459 -626 -300 -165 -726 -219 -1052 -134 -310 81 -478 235
-887 811 l-47 67 26 113 c14 62 30 131 35 153 12 52 39 267 40 325 1 25 1 123
1 219 -1 196 17 309 69 451 39 107 127 282 181 361 47 70 225 259 243 259 6 0
36 -19 66 -41 87 -66 132 -82 210 -77 46 4 82 13 111 29 52 30 65 55 23 46
-133 -29 -161 -31 -205 -14 -89 34 -199 146 -199 202 0 63 142 317 229 409 20
21 54 50 76 64 l40 26 -34 8 c-76 20 -218 -89 -326 -252 -64 -95 -269 -504
-358 -711 -58 -136 -142 -394 -157 -482 -8 -45 -10 -116 -5 -210 11 -237 16
-185 -55 -547 -42 -212 -53 -260 -61 -260 -12 0 -226 325 -281 425 -175 322
-296 711 -337 1090 -6 55 -16 231 -21 390 -10 317 -23 421 -75 621 -18 71 -43
181 -55 243 -24 127 -26 93 21 516 17 149 34 308 39 355 11 108 32 184 70 260
45 88 68 152 94 255 22 87 23 103 19 371 -3 153 -9 294 -15 313 -6 18 -36 88
-68 155 -32 66 -76 161 -99 209 -35 76 -43 88 -60 82 -11 -3 -80 -40 -153 -82
-73 -42 -150 -86 -170 -97 -53 -30 -126 -179 -156 -321 -6 -27 -16 -72 -23
-100 -20 -83 -23 -335 -4 -450 20 -130 60 -297 120 -510 13 -44 25 -89 28
-100 18 -74 61 -227 73 -263 25 -76 18 -152 -26 -262 -12 -30 -33 -91 -47
-135 -14 -44 -41 -129 -60 -190 -36 -116 -60 -220 -73 -320 -5 -33 -13 -84
-19 -114 -6 -30 -11 -159 -11 -287 0 -250 14 -355 61 -463 11 -25 25 -58 32
-74 17 -38 152 -172 193 -192 19 -9 53 -19 77 -23 47 -8 43 -1 77 -150 21 -90
141 -467 175 -547 68 -161 178 -378 223 -442 11 -16 33 -55 50 -89 80 -158
586 -828 752 -995 167 -168 382 -282 633 -336 66 -15 129 -18 322 -18 221 1
250 3 365 27 705 151 1462 674 1877 1298 175 262 303 565 428 1010 31 113 63
211 69 217 9 10 20 10 51 1 22 -6 78 -11 125 -11 120 0 203 35 286 117 125
124 196 279 207 451 3 44 13 97 21 118 24 54 36 241 36 552 0 201 -4 288 -15
340 -8 38 -15 82 -15 97 0 35 -15 97 -50 213 -42 137 -52 183 -41 203 5 9 12
37 16 62 4 25 11 50 15 55 10 12 83 319 102 425 18 106 18 835 0 940 -44 245
-75 346 -159 518 -78 160 -175 293 -304 418 -141 136 -292 225 -499 293 -150
49 -200 61 -260 61 -70 0 -114 21 -144 69 -39 62 -186 202 -268 255 -100 65
-184 114 -211 121 -12 4 -42 17 -67 30 -117 61 -527 172 -810 220 -52 9 -130
23 -173 31 -42 8 -92 14 -110 14 -17 0 -67 7 -110 14 -43 8 -86 12 -96 9 -10
-3 -47 2 -81 11 -52 13 -125 16 -453 15 -216 -1 -410 -5 -432 -10z m-1543
-4570 c9 -41 27 -118 39 -172 16 -73 27 -101 42 -108 28 -16 7 -32 -25 -20
-14 5 -28 7 -31 5 -10 -10 35 -99 68 -134 30 -32 34 -44 45 -132 6 -54 20
-134 31 -179 11 -45 17 -85 14 -88 -9 -8 -90 37 -160 90 -70 53 -66 45 -86
219 -16 144 11 605 36 597 5 -2 18 -37 27 -78z"/>
<path d="M3457 5533 c-11 -19 21 -173 52 -251 l21 -52 -26 -23 c-62 -53 -103
-155 -135 -337 -25 -143 -18 -310 13 -310 6 0 9 43 8 108 -2 104 5 145 48 287
16 52 91 195 102 195 3 0 10 -8 17 -19 10 -16 4 -34 -34 -112 -51 -107 -74
-192 -55 -211 18 -18 45 13 77 90 35 81 71 141 90 149 8 3 15 11 15 18 0 17
464 29 630 15 153 -12 189 -22 260 -70 86 -58 192 -108 267 -125 45 -10 89
-29 128 -55 57 -38 60 -39 63 -19 7 41 -82 199 -171 304 -91 108 -121 135
-207 183 -120 66 -311 99 -523 89 -191 -9 -495 22 -533 54 -8 6 -14 19 -14 29
0 42 -75 93 -93 63z"/>
<path d="M2985 5463 c8 -73 62 -329 77 -366 33 -85 35 18 3 172 -8 38 -19 101
-25 142 -14 99 -18 109 -42 109 -19 0 -20 -4 -13 -57z"/>
<path d="M2813 5475 c-74 -34 -228 -81 -293 -90 -30 -4 -171 -8 -315 -10 -286
-2 -340 -11 -440 -69 -117 -69 -257 -221 -324 -353 l-21 -42 27 -33 c15 -18
32 -36 37 -40 12 -8 96 29 205 91 47 27 118 62 156 76 39 15 86 33 105 40 53
21 137 19 161 -4 l21 -19 -20 -11 c-12 -6 -34 -11 -50 -11 -51 0 -184 -39
-241 -71 -31 -18 -78 -50 -105 -72 -52 -44 -146 -152 -146 -168 0 -15 87 -1
135 21 22 11 52 22 68 26 30 7 47 26 29 32 -25 8 -11 43 30 72 55 40 80 36 90
-12 4 -20 21 -59 38 -87 39 -62 64 -71 210 -71 134 0 171 15 182 75 9 49 2 89
-23 129 -33 53 -27 59 49 52 179 -17 168 -11 178 -99 5 -50 4 -54 -33 -91 -55
-56 -133 -112 -196 -140 -69 -30 -85 -52 -34 -43 36 6 90 29 157 67 19 11 64
48 100 82 60 58 69 63 109 63 24 0 46 5 48 11 2 6 -10 30 -27 55 -16 24 -30
50 -30 58 0 7 -14 33 -30 58 -17 25 -28 48 -25 51 3 3 5 0 5 -6 0 -7 6 -12 14
-12 15 0 87 -76 116 -122 14 -24 19 -26 33 -15 16 11 16 16 1 67 -16 55 -65
113 -106 126 -21 6 -21 35 -1 41 7 3 39 -22 71 -54 76 -76 162 -244 162 -316
0 -41 3 -49 25 -59 16 -7 29 -8 35 -2 5 5 9 50 9 99 1 165 -12 252 -45 318
-13 27 -24 57 -24 68 0 39 -28 89 -50 89 -35 0 -33 26 6 87 72 110 84 169 38
187 -20 7 -10 10 -71 -19z m-749 -551 c27 -10 18 -34 -20 -50 -48 -20 -69 -13
-53 18 19 36 39 45 73 32z m174 -67 c7 -18 12 -36 12 -40 0 -14 -28 -7 -34 8
-3 8 -17 20 -31 27 -36 16 -32 38 8 38 28 0 35 -5 45 -33z m-196 -77 c7 -11
17 -20 21 -20 5 0 21 -10 35 -21 l27 -22 -30 7 c-29 7 -85 52 -85 68 0 15 20
8 32 -12z"/>
<path d="M3370 5475 c-5 -14 -10 -36 -10 -47 0 -18 -36 -170 -70 -299 -13 -46
-13 -69 0 -69 17 0 38 54 79 197 46 164 55 236 29 241 -12 2 -21 -6 -28 -23z"/>
<path d="M3680 5061 c13 -9 12 -12 -5 -25 -11 -9 -25 -16 -30 -16 -20 0 -44
-56 -60 -143 -20 -107 -18 -142 10 -142 15 0 25 14 41 60 27 76 67 116 130
133 140 37 134 36 134 25 0 -5 -23 -24 -50 -43 -37 -26 -50 -42 -50 -60 0 -42
36 -86 99 -124 61 -35 150 -70 158 -62 5 5 -12 16 -92 61 -59 34 -105 77 -105
99 0 23 74 101 109 116 35 14 77 9 73 -8 -1 -7 -8 -33 -14 -57 -15 -57 0 -106
53 -163 l40 -42 87 0 c100 0 143 17 180 70 24 35 29 97 12 131 -8 13 -7 19 0
19 22 0 106 -49 133 -77 26 -28 26 -30 10 -45 -10 -8 -40 -27 -68 -43 -27 -16
-44 -30 -38 -32 12 -4 106 22 185 53 l47 18 64 -57 c99 -87 118 -72 42 32 -31
41 -79 86 -152 140 -120 89 -203 133 -278 150 -108 23 -694 52 -665 32z m600
-176 c15 -18 9 -49 -10 -53 -16 -3 -60 32 -60 48 0 8 20 16 46 19 6 0 17 -6
24 -14z"/>
<path d="M3701 4862 c-19 -36 55 -142 99 -142 7 0 1 15 -14 34 -28 37 -33 65
-15 83 7 7 9 19 6 27 -9 23 -64 21 -76 -2z"/>
<path d="M3855 4561 c-6 -11 -7 -10 94 -88 l74 -56 115 -10 c188 -15 291 8
375 85 33 31 51 58 29 44 -5 -3 -44 -15 -88 -27 -64 -18 -104 -22 -214 -22
-145 1 -214 14 -314 58 -65 29 -63 28 -71 16z"/>
<path d="M2437 4503 c-67 -28 -219 -53 -316 -53 -44 0 -89 9 -136 25 -73 26
-105 31 -105 17 0 -54 252 -120 385 -101 114 16 245 80 245 120 0 23 0 23 -73
-8z"/>
<path d="M4603 4323 c-7 -3 -13 -12 -13 -21 0 -15 2 -15 17 1 18 18 16 27 -4
20z"/>
<path d="M3485 3931 c-3 -6 6 -18 21 -28 51 -36 160 -136 201 -186 125 -151
142 -274 51 -373 -58 -63 -135 -98 -220 -100 -73 -1 -102 -14 -80 -36 9 -9 45
-13 105 -13 106 0 160 20 230 86 22 22 45 39 52 39 6 0 36 -30 66 -67 229
-281 374 -605 408 -911 5 -46 12 -86 16 -90 13 -13 35 32 35 72 0 134 -86 430
-206 711 -87 205 -236 516 -306 640 -67 117 -172 225 -242 248 -54 19 -122 22
-131 8z"/>
<path d="M2741 3493 c-68 -34 -93 -122 -46 -168 28 -29 66 -32 174 -13 l69 12
47 -40 c130 -111 229 -112 364 -2 l63 52 64 -21 c78 -26 121 -18 147 26 27 45
22 88 -13 121 -40 37 -91 53 -150 48 -58 -6 -96 -32 -152 -105 -56 -73 -86
-94 -141 -100 -58 -7 -95 15 -170 100 -86 98 -175 130 -256 90z"/>
<path d="M2860 2626 c-41 -18 -101 -49 -133 -70 -33 -21 -98 -56 -145 -78
-160 -73 -187 -88 -241 -136 -46 -40 -53 -52 -48 -72 9 -36 200 -255 277 -317
74 -61 215 -133 310 -160 53 -14 105 -18 280 -18 211 0 217 1 304 29 102 34
162 71 301 190 168 143 285 259 285 283 0 32 -48 64 -201 136 -74 34 -159 76
-189 93 -30 18 -104 57 -163 88 -137 71 -164 72 -271 16 -41 -22 -82 -40 -90
-40 -9 0 -30 13 -48 29 -45 39 -92 61 -125 60 -15 0 -62 -15 -103 -33z"/>
<path d="M2855 1653 c-53 -12 -88 -27 -115 -50 -27 -22 -30 -31 -30 -82 0 -72
15 -88 97 -101 93 -15 662 -8 691 8 23 13 64 90 76 143 11 48 -9 58 -139 74
-111 14 -528 20 -580 8z"/>
<path d="M4900 1439 c0 -5 5 -7 10 -4 6 3 10 8 10 11 0 2 -4 4 -10 4 -5 0 -10
-5 -10 -11z"/>
</g>
</svg>
